<svg width="35" height="17" viewBox="0 0 35 17" fill="none" xmlns="http://www.w3.org/2000/svg">
<path d="M15.6758 17H0.078125V12.1953C0.078125 11.5391 0.203125 10.9219 0.453125 10.3438C0.710938 9.75781 1.05469 9.25 1.48438 8.82031C1.92188 8.38281 2.42969 8.03906 3.00781 7.78906C3.59375 7.53125 4.21875 7.40234 4.88281 7.40234H10.8828C11.2109 7.40234 11.5195 7.33984 11.8086 7.21484C12.1055 7.08984 12.3594 6.91797 12.5703 6.69922C12.7891 6.48047 12.9609 6.22656 13.0859 5.9375C13.2188 5.64062 13.2852 5.32812 13.2852 5C13.2852 4.67188 13.2188 4.36328 13.0859 4.07422C12.9609 3.77734 12.7891 3.51953 12.5703 3.30078C12.3594 3.08203 12.1055 2.91016 11.8086 2.78516C11.5195 2.66016 11.2109 2.59766 10.8828 2.59766H1.28516V0.195312H10.8828C11.5391 0.195312 12.1562 0.324219 12.7344 0.582031C13.3203 0.832031 13.8281 1.17578 14.2578 1.61328C14.6953 2.04297 15.0391 2.55078 15.2891 3.13672C15.5469 3.72266 15.6758 4.34375 15.6758 5C15.6758 5.65625 15.5469 6.27734 15.2891 6.86328C15.0391 7.44922 14.6953 7.96094 14.2578 8.39844C13.8281 8.82812 13.3203 9.17188 12.7344 9.42969C12.1562 9.67969 11.5391 9.80469 10.8828 9.80469H4.88281C4.55469 9.80469 4.24219 9.86719 3.94531 9.99219C3.64844 10.1172 3.39062 10.2891 3.17188 10.5078C2.95312 10.7266 2.77734 10.9805 2.64453 11.2695C2.51953 11.5586 2.45703 11.8672 2.45703 12.1953V14.5977H15.6758V17ZM17.8906 0.195312H20.293V6.19531C20.293 6.52344 20.3555 6.83594 20.4805 7.13281C20.6055 7.42188 20.7773 7.67578 20.9961 7.89453C21.2148 8.11328 21.4688 8.28516 21.7578 8.41016C22.0547 8.53516 22.3672 8.59766 22.6953 8.59766H32.293V0.195312H34.6953V17H32.293V11H22.6953C22.0312 11 21.4062 10.875 20.8203 10.625C20.2422 10.3672 19.7344 10.0234 19.2969 9.59375C18.8672 9.15625 18.5234 8.64844 18.2656 8.07031C18.0156 7.48438 17.8906 6.85938 17.8906 6.19531V0.195312Z" fill="#83850E"/>
</svg>
