<svg width="73" height="490" viewBox="0 0 73 490" fill="none" xmlns="http://www.w3.org/2000/svg">
<path d="M15.3916 426.922L15.1654 470.505L29.1812 470.578L29.393 429.778L43.0248 429.849L42.813 470.649L68.7327 470.783L68.6335 489.887L1.43441 489.538L1.75982 426.851L15.3916 426.922ZM1.80475 418.195L1.90392 399.091L69.103 399.44L69.0039 418.544L1.80475 418.195ZM2.31223 320.436L15.944 320.507L15.812 345.947L69.3793 346.225L69.2801 365.329L15.7128 365.05L15.5808 390.49L1.94894 390.419L2.31223 320.436ZM2.64017 257.263L2.73934 238.159L69.9384 238.508L69.8323 258.956L24.92 292.803L69.6554 293.035L69.5562 312.139L2.35711 311.79L2.46326 291.343L47.3756 257.495L2.64017 257.263ZM56.6962 163.393L70.328 163.464L69.9981 227.015L2.799 226.667L3.12441 163.979L16.7562 164.05L16.53 207.634L28.7218 207.697L28.9336 166.897L42.5654 166.968L42.3536 207.768L56.4654 207.841L56.6962 163.393ZM29.5861 115.183C31.9782 98.2033 32.4499 81.3095 49.3457 81.3972C65.4735 81.4809 72.0267 95.1471 71.8981 119.915C71.76 146.506 63.1579 157.694 48.47 157.618L48.5752 137.362C56.0631 137.401 58.3199 128.004 58.3692 118.501C58.4231 108.133 56.341 102.362 51.829 102.338C46.2611 102.309 46.5058 110.663 43.2426 128.982C40.275 145.863 36.8627 155.925 23.3269 155.855C9.69504 155.784 1.78346 144.895 1.90904 120.704C2.04708 94.1119 11.8838 85.5228 23.9796 85.5856L23.878 105.169C19.366 105.146 15.4982 110.502 15.4439 120.966C15.3846 132.39 17.7616 136.818 21.9856 136.84C27.6495 136.869 28.0868 126.599 29.5861 115.183ZM30.0065 34.1842C32.3987 17.2044 32.8704 0.310601 49.7662 0.398308C65.894 0.482029 72.4471 14.1482 72.3186 38.9159C72.1805 65.5075 63.5783 76.695 48.8905 76.6188L48.9957 56.3631C56.4836 56.4019 58.7404 47.0055 58.7897 37.5016C58.8435 27.1338 56.7615 21.3629 52.2495 21.3395C46.6816 21.3106 46.9262 29.664 43.6631 47.9833C40.6954 64.8641 37.2831 74.9265 23.7473 74.8562C10.1155 74.7855 2.20393 63.8963 2.32951 39.7046C2.46755 13.113 12.3043 4.52389 24.4001 4.58668L24.2984 24.1704C19.7865 24.147 15.9187 29.503 15.8643 39.9669C15.805 51.3907 18.1821 55.8191 22.406 55.841C28.0699 55.8704 28.5073 45.6006 30.0065 34.1842Z" fill="white"/>
</svg>
