<svg width="140" height="23" viewBox="0 0 140 23" fill="none" xmlns="http://www.w3.org/2000/svg">
<path d="M25.1406 23H10.7188C9.16667 23 7.75521 22.7083 6.48438 22.125C5.21354 21.5417 4.125 20.7448 3.21875 19.7344C2.32292 18.724 1.63021 17.5365 1.14062 16.1719C0.651042 14.8073 0.40625 13.349 0.40625 11.7969C0.40625 10.2552 0.651042 8.80729 1.14062 7.45312C1.63021 6.08854 2.32292 4.90104 3.21875 3.89062C4.125 2.86979 5.21354 2.06771 6.48438 1.48438C7.75521 0.890625 9.16667 0.59375 10.7188 0.59375H25.1406V3.79688H10.7188C9.61458 3.79688 8.61979 4.01042 7.73438 4.4375C6.85938 4.85417 6.11458 5.42708 5.5 6.15625C4.89583 6.875 4.42708 7.71875 4.09375 8.6875C3.77083 9.65625 3.60938 10.6927 3.60938 11.7969C3.60938 12.901 3.77083 13.9427 4.09375 14.9219C4.42708 15.8906 4.89583 16.7396 5.5 17.4688C6.11458 18.1875 6.85938 18.7552 7.73438 19.1719C8.61979 19.5885 9.61458 19.7969 10.7188 19.7969H21.9375V13.4062H8.375V10.2031H25.1406V23ZM54.875 16.5938C54.875 17.4896 54.6615 18.3281 54.2344 19.1094C53.8177 19.8802 53.2448 20.5573 52.5156 21.1406C51.7969 21.7135 50.9531 22.1667 49.9844 22.5C49.0156 22.8333 47.9792 23 46.875 23H28.9844V19.7969H46.875C47.5312 19.7969 48.151 19.7135 48.7344 19.5469C49.3177 19.3802 49.8229 19.151 50.25 18.8594C50.6875 18.5677 51.0312 18.2292 51.2812 17.8438C51.5417 17.4479 51.6719 17.0312 51.6719 16.5938V15H36.9844C35.8802 15 34.8385 14.7917 33.8594 14.375C32.8906 13.9583 32.0417 13.3906 31.3125 12.6719C30.5938 11.9427 30.026 11.0938 29.6094 10.125C29.1927 9.14583 28.9844 8.10417 28.9844 7V0.59375H32.1875V7C32.1875 7.66667 32.3125 8.29167 32.5625 8.875C32.8125 9.45833 33.151 9.96875 33.5781 10.4062C34.0156 10.8333 34.526 11.1719 35.1094 11.4219C35.6927 11.6719 36.3177 11.7969 36.9844 11.7969H51.6719V0.59375H54.875V16.5938ZM76.1875 23H72.9844V11.7969C72.9844 10.6927 72.776 9.65625 72.3594 8.6875C71.9427 7.71875 71.3698 6.875 70.6406 6.15625C69.9219 5.42708 69.0729 4.85417 68.0938 4.4375C67.125 4.01042 66.0885 3.79688 64.9844 3.79688H63.2656V23H60.0625V0.59375H64.9844C66.0052 0.59375 66.9844 0.729167 67.9219 1C68.8698 1.26042 69.7552 1.63021 70.5781 2.10938C71.401 2.58854 72.151 3.16146 72.8281 3.82812C73.5052 4.49479 74.0938 5.23438 74.5938 6.04688C75.0833 5.23438 75.6667 4.49479 76.3438 3.82812C77.0208 3.16146 77.7708 2.58854 78.5938 2.10938C79.4167 1.63021 80.2969 1.26042 81.2344 1C82.1823 0.729167 83.1667 0.59375 84.1875 0.59375H89.125V23H85.9219V3.79688H84.1875C83.0833 3.79688 82.0469 4.01042 81.0781 4.4375C80.1094 4.85417 79.2604 5.42708 78.5312 6.15625C77.8125 6.875 77.2396 7.71875 76.8125 8.6875C76.3958 9.65625 76.1875 10.6927 76.1875 11.7969V23Z" fill="white"/>
<path d="M114.047 23H93.25V16.5938C93.25 15.7188 93.4167 14.8958 93.75 14.125C94.0938 13.3438 94.5521 12.6667 95.125 12.0938C95.7083 11.5104 96.3854 11.0521 97.1562 10.7188C97.9375 10.375 98.7708 10.2031 99.6562 10.2031H107.656C108.094 10.2031 108.505 10.1198 108.891 9.95312C109.286 9.78646 109.625 9.55729 109.906 9.26562C110.198 8.97396 110.427 8.63542 110.594 8.25C110.771 7.85417 110.859 7.4375 110.859 7C110.859 6.5625 110.771 6.15104 110.594 5.76562C110.427 5.36979 110.198 5.02604 109.906 4.73438C109.625 4.44271 109.286 4.21354 108.891 4.04688C108.505 3.88021 108.094 3.79688 107.656 3.79688H94.8594V0.59375H107.656C108.531 0.59375 109.354 0.765625 110.125 1.10938C110.906 1.44271 111.583 1.90104 112.156 2.48438C112.74 3.05729 113.198 3.73438 113.531 4.51562C113.875 5.29688 114.047 6.125 114.047 7C114.047 7.875 113.875 8.70312 113.531 9.48438C113.198 10.2656 112.74 10.9479 112.156 11.5312C111.583 12.1042 110.906 12.5625 110.125 12.9062C109.354 13.2396 108.531 13.4062 107.656 13.4062H99.6562C99.2188 13.4062 98.8021 13.4896 98.4062 13.6562C98.0104 13.8229 97.6667 14.0521 97.375 14.3438C97.0833 14.6354 96.849 14.974 96.6719 15.3594C96.5052 15.7448 96.4219 16.1562 96.4219 16.5938V19.7969H114.047V23ZM117 0.59375H120.203V8.59375C120.203 9.03125 120.286 9.44792 120.453 9.84375C120.62 10.2292 120.849 10.5677 121.141 10.8594C121.432 11.151 121.771 11.3802 122.156 11.5469C122.552 11.7135 122.969 11.7969 123.406 11.7969H136.203V0.59375H139.406V23H136.203V15H123.406C122.521 15 121.688 14.8333 120.906 14.5C120.135 14.1562 119.458 13.6979 118.875 13.125C118.302 12.5417 117.844 11.8646 117.5 11.0938C117.167 10.3125 117 9.47917 117 8.59375V0.59375Z" fill="#FAFF00"/>
</svg>
