<svg width="157" height="26" viewBox="0 0 157 26" fill="none" xmlns="http://www.w3.org/2000/svg">
<path d="M28.4082 26H12.1836C10.4375 26 8.84961 25.6719 7.41992 25.0156C5.99023 24.3594 4.76562 23.4629 3.74609 22.3262C2.73828 21.1895 1.95898 19.8535 1.4082 18.3184C0.857422 16.7832 0.582031 15.1426 0.582031 13.3965C0.582031 11.6621 0.857422 10.0332 1.4082 8.50977C1.95898 6.97461 2.73828 5.63867 3.74609 4.50195C4.76562 3.35352 5.99023 2.45117 7.41992 1.79492C8.84961 1.12695 10.4375 0.792969 12.1836 0.792969H28.4082V4.39648H12.1836C10.9414 4.39648 9.82227 4.63672 8.82617 5.11719C7.8418 5.58594 7.00391 6.23047 6.3125 7.05078C5.63281 7.85938 5.10547 8.80859 4.73047 9.89844C4.36719 10.9883 4.18555 12.1543 4.18555 13.3965C4.18555 14.6387 4.36719 15.8105 4.73047 16.9121C5.10547 18.002 5.63281 18.957 6.3125 19.7773C7.00391 20.5859 7.8418 21.2246 8.82617 21.6934C9.82227 22.1621 10.9414 22.3965 12.1836 22.3965H24.8047V15.207H9.54688V11.6035H28.4082V26ZM61.8594 18.793C61.8594 19.8008 61.6191 20.7441 61.1387 21.623C60.6699 22.4902 60.0254 23.252 59.2051 23.9082C58.3965 24.5527 57.4473 25.0625 56.3574 25.4375C55.2676 25.8125 54.1016 26 52.8594 26H32.7324V22.3965H52.8594C53.5977 22.3965 54.2949 22.3027 54.9512 22.1152C55.6074 21.9277 56.1758 21.6699 56.6562 21.3418C57.1484 21.0137 57.5352 20.6328 57.8164 20.1992C58.1094 19.7539 58.2559 19.2852 58.2559 18.793V17H41.7324C40.4902 17 39.3184 16.7656 38.2168 16.2969C37.127 15.8281 36.1719 15.1895 35.3516 14.3809C34.543 13.5605 33.9043 12.6055 33.4355 11.5156C32.9668 10.4141 32.7324 9.24219 32.7324 8V0.792969H36.3359V8C36.3359 8.75 36.4766 9.45312 36.7578 10.1094C37.0391 10.7656 37.4199 11.3398 37.9004 11.832C38.3926 12.3125 38.9668 12.6934 39.623 12.9746C40.2793 13.2559 40.9824 13.3965 41.7324 13.3965H58.2559V0.792969H61.8594V18.793ZM85.8359 26H82.2324V13.3965C82.2324 12.1543 81.998 10.9883 81.5293 9.89844C81.0605 8.80859 80.416 7.85938 79.5957 7.05078C78.7871 6.23047 77.832 5.58594 76.7305 5.11719C75.6406 4.63672 74.4746 4.39648 73.2324 4.39648H71.2988V26H67.6953V0.792969H73.2324C74.3809 0.792969 75.4824 0.945313 76.5371 1.25C77.6035 1.54297 78.5996 1.95898 79.5254 2.49805C80.4512 3.03711 81.2949 3.68164 82.0566 4.43164C82.8184 5.18164 83.4805 6.01367 84.043 6.92773C84.5938 6.01367 85.25 5.18164 86.0117 4.43164C86.7734 3.68164 87.6172 3.03711 88.543 2.49805C89.4688 1.95898 90.459 1.54297 91.5137 1.25C92.5801 0.945313 93.6875 0.792969 94.8359 0.792969H100.391V26H96.7871V4.39648H94.8359C93.5938 4.39648 92.4277 4.63672 91.3379 5.11719C90.248 5.58594 89.293 6.23047 88.4727 7.05078C87.6641 7.85938 87.0195 8.80859 86.5391 9.89844C86.0703 10.9883 85.8359 12.1543 85.8359 13.3965V26Z" fill="#1C1C1C"/>
<path d="M128.428 26H105.031V18.793C105.031 17.8086 105.219 16.8828 105.594 16.0156C105.98 15.1367 106.496 14.375 107.141 13.7305C107.797 13.0742 108.559 12.5586 109.426 12.1836C110.305 11.7969 111.242 11.6035 112.238 11.6035H121.238C121.73 11.6035 122.193 11.5098 122.627 11.3223C123.072 11.1348 123.453 10.877 123.77 10.5488C124.098 10.2207 124.355 9.83984 124.543 9.40625C124.742 8.96094 124.842 8.49219 124.842 8C124.842 7.50781 124.742 7.04492 124.543 6.61133C124.355 6.16602 124.098 5.7793 123.77 5.45117C123.453 5.12305 123.072 4.86523 122.627 4.67773C122.193 4.49023 121.73 4.39648 121.238 4.39648H106.842V0.792969H121.238C122.223 0.792969 123.148 0.986328 124.016 1.37305C124.895 1.74805 125.656 2.26367 126.301 2.91992C126.957 3.56445 127.473 4.32617 127.848 5.20508C128.234 6.08398 128.428 7.01562 128.428 8C128.428 8.98438 128.234 9.91602 127.848 10.7949C127.473 11.6738 126.957 12.4414 126.301 13.0977C125.656 13.7422 124.895 14.2578 124.016 14.6445C123.148 15.0195 122.223 15.207 121.238 15.207H112.238C111.746 15.207 111.277 15.3008 110.832 15.4883C110.387 15.6758 110 15.9336 109.672 16.2617C109.344 16.5898 109.08 16.9707 108.881 17.4043C108.693 17.8379 108.6 18.3008 108.6 18.793V22.3965H128.428V26ZM131.75 0.792969H135.354V9.79297C135.354 10.2852 135.447 10.7539 135.635 11.1992C135.822 11.6328 136.08 12.0137 136.408 12.3418C136.736 12.6699 137.117 12.9277 137.551 13.1152C137.996 13.3027 138.465 13.3965 138.957 13.3965H153.354V0.792969H156.957V26H153.354V17H138.957C137.961 17 137.023 16.8125 136.145 16.4375C135.277 16.0508 134.516 15.5352 133.859 14.8906C133.215 14.2344 132.699 13.4727 132.312 12.6055C131.938 11.7266 131.75 10.7891 131.75 9.79297V0.792969Z" fill="#AFB217"/>
</svg>
